# xmcd
#
# Track frame offsets:
#	150
#	13762
#	29101
#	39301
#	56614
#	58929
#	76139
#	89369
#	106289
#	132600
#	151260
#
# Disc length: 2195 seconds
#
# Revision: 1
# Processed by: cddbd v1.4b42PL0 Copyright (c) Steve Scherf et al.
# Submitted via: audiograbber 1.80
#
DISCID=8f08910b
DTITLE=Crystal Gayle - A Crystal Christmas
DYEAR=1900
DGENRE=
TTITLE0=White Christmas
TTITLE1=Oh Holy Night
TTITLE2=Winter Wonderland
TTITLE3=I'll Be Home For Christmas
TTITLE4=Interlude
TTITLE5=Have Yourself A Merry Little Christmas
TTITLE6=Rudolph The Red Nosed Reindeer
TTITLE7=Little Drummer Boy
TTITLE8=The Christmas Song and Jingle Bells
TTITLE9=Silver Bells
TTITLE10=Silent Night
EXTD=
EXTT0=
EXTT1=
EXTT2=
EXTT3=
EXTT4=
EXTT5=
EXTT6=
EXTT7=
EXTT8=
EXTT9=
EXTT10=
PLAYORDER=
